<?plantuml 1.2026.2?><svg xmlns="http://www.w3.org/2000/svg" xmlns:xlink="http://www.w3.org/1999/xlink" width="1242" height="1038" contentStyleType="text/css" data-diagram-type="SEQUENCE" preserveAspectRatio="none" style="width:1242px;height:1038px;background:#fff" version="1.1" viewBox="0 0 1242 1038" zoomAndPan="magnify"><g><g id="part1-lifeline" class="participant-lifeline" data-entity-uid="part1" data-qualified-name="K"><g><title>Kubelet</title><rect width="8" height="875.627" x="173.761" y="81.488" fill="#000" fill-opacity="0"/><line style="stroke:#181818;stroke-width:.5;stroke-dasharray:5,5" x1="177" x2="177" y1="81.488" y2="957.115"/></g></g><g id="part2-lifeline" class="participant-lifeline" data-entity-uid="part2" data-qualified-name="DP"><g><title>Device Plugin</title><rect width="8" height="875.627" x="517.48" y="81.488" fill="#000" fill-opacity="0"/><line style="stroke:#181818;stroke-width:.5;stroke-dasharray:5,5" x1="520.662" x2="520.662" y1="81.488" y2="957.115"/></g></g><g id="part3-lifeline" class="participant-lifeline" data-entity-uid="part3" data-qualified-name="API"><g><title>API Server</title><rect width="8" height="875.627" x="633.15" y="81.488" fill="#000" fill-opacity="0"/><line style="stroke:#181818;stroke-width:.5;stroke-dasharray:5,5" x1="636.298" x2="636.298" y1="81.488" y2="957.115"/></g></g><g id="part4-lifeline" class="participant-lifeline" data-entity-uid="part4" data-qualified-name="SCH"><g><title>kube-scheduler</title><rect width="8" height="875.627" x="900.437" y="81.488" fill="#000" fill-opacity="0"/><line style="stroke:#181818;stroke-width:.5;stroke-dasharray:5,5" x1="903.71" x2="903.71" y1="81.488" y2="957.115"/></g></g><g id="part5-lifeline" class="participant-lifeline" data-entity-uid="part5" data-qualified-name="U"><g><title>User</title><rect width="8" height="875.627" x="1207.965" y="81.488" fill="#000" fill-opacity="0"/><line style="stroke:#181818;stroke-width:.5;stroke-dasharray:5,5" x1="1211.782" x2="1211.782" y1="81.488" y2="957.115"/></g></g><g id="part1-head" class="participant participant-head" data-entity-uid="part1" data-qualified-name="K"><rect width="65.522" height="30.488" x="145" y="50" fill="#E2E2F0" rx="2.5" ry="2.5" style="stroke:#181818;stroke-width:.5"/><text x="152" y="70.535" fill="#000" font-family="sans-serif" font-size="14" lengthAdjust="spacing" textLength="51.523">Kubelet</text></g><g id="part1-tail" class="participant participant-tail" data-entity-uid="part1" data-qualified-name="K"><rect width="65.522" height="30.488" x="145" y="956.115" fill="#E2E2F0" rx="2.5" ry="2.5" style="stroke:#181818;stroke-width:.5"/><text x="152" y="976.65" fill="#000" font-family="sans-serif" font-size="14" lengthAdjust="spacing" textLength="51.523">Kubelet</text></g><g id="part2-head" class="participant participant-head" data-entity-uid="part2" data-qualified-name="DP"><rect width="129.637" height="46.977" x="456.662" y="33.512" fill="#E2E2F0" rx="2.5" ry="2.5" style="stroke:#181818;stroke-width:.5"/><text x="476.021" y="54.047" fill="#000" font-family="sans-serif" font-size="14" lengthAdjust="spacing" textLength="90.918">Device Plugin</text><text x="463.662" y="70.535" fill="#000" font-family="sans-serif" font-size="14" lengthAdjust="spacing" textLength="115.637">(DaemonSet Pod)</text></g><g id="part2-tail" class="participant participant-tail" data-entity-uid="part2" data-qualified-name="DP"><rect width="129.637" height="46.977" x="456.662" y="956.115" fill="#E2E2F0" rx="2.5" ry="2.5" style="stroke:#181818;stroke-width:.5"/><text x="476.021" y="976.65" fill="#000" font-family="sans-serif" font-size="14" lengthAdjust="spacing" textLength="90.918">Device Plugin</text><text x="463.662" y="993.139" fill="#000" font-family="sans-serif" font-size="14" lengthAdjust="spacing" textLength="115.637">(DaemonSet Pod)</text></g><g id="part3-head" class="participant participant-head" data-entity-uid="part3" data-qualified-name="API"><rect width="81.703" height="30.488" x="596.298" y="50" fill="#E2E2F0" rx="2.5" ry="2.5" style="stroke:#181818;stroke-width:.5"/><text x="603.298" y="70.535" fill="#000" font-family="sans-serif" font-size="14" lengthAdjust="spacing" textLength="67.703">API Server</text></g><g id="part3-tail" class="participant participant-tail" data-entity-uid="part3" data-qualified-name="API"><rect width="81.703" height="30.488" x="596.298" y="956.115" fill="#E2E2F0" rx="2.5" ry="2.5" style="stroke:#181818;stroke-width:.5"/><text x="603.298" y="976.65" fill="#000" font-family="sans-serif" font-size="14" lengthAdjust="spacing" textLength="67.703">API Server</text></g><g id="part4-head" class="participant participant-head" data-entity-uid="part4" data-qualified-name="SCH"><rect width="121.454" height="30.488" x="843.71" y="50" fill="#E2E2F0" rx="2.5" ry="2.5" style="stroke:#181818;stroke-width:.5"/><text x="850.71" y="70.535" fill="#000" font-family="sans-serif" font-size="14" lengthAdjust="spacing" textLength="107.454">kube-scheduler</text></g><g id="part4-tail" class="participant participant-tail" data-entity-uid="part4" data-qualified-name="SCH"><rect width="121.454" height="30.488" x="843.71" y="956.115" fill="#E2E2F0" rx="2.5" ry="2.5" style="stroke:#181818;stroke-width:.5"/><text x="850.71" y="976.65" fill="#000" font-family="sans-serif" font-size="14" lengthAdjust="spacing" textLength="107.454">kube-scheduler</text></g><g id="part5-head" class="participant participant-head" data-entity-uid="part5" data-qualified-name="U"><text x="1193.782" y="78.535" fill="#000" font-family="sans-serif" font-size="14" lengthAdjust="spacing" textLength="30.365">User</text><ellipse cx="1211.965" cy="13.5" fill="#E2E2F0" rx="8" ry="8" style="stroke:#181818;stroke-width:.5"/><path fill="none" d="M1211.9648,21.5 L1211.9648,48.5 M1198.9648,29.5 L1224.9648,29.5 M1211.9648,48.5 L1198.9648,63.5 M1211.9648,48.5 L1224.9648,63.5" style="stroke:#181818;stroke-width:.5"/></g><g id="part5-tail" class="participant participant-tail" data-entity-uid="part5" data-qualified-name="U"><text x="1193.782" y="969.65" fill="#000" font-family="sans-serif" font-size="14" lengthAdjust="spacing" textLength="30.365">User</text><ellipse cx="1211.965" cy="981.104" fill="#E2E2F0" rx="8" ry="8" style="stroke:#181818;stroke-width:.5"/><path fill="none" d="M1211.9648,989.1035 L1211.9648,1016.1035 M1198.9648,997.1035 L1224.9648,997.1035 M1211.9648,1016.1035 L1198.9648,1031.1035 M1211.9648,1016.1035 L1224.9648,1031.1035" style="stroke:#181818;stroke-width:.5"/></g><rect width="1235.148" height="3" x="0" fill="#EEE" style="stroke:#eee;stroke-width:1" y="112.144"/><line style="stroke:#000;stroke-width:1" x1="0" x2="1235.148" y1="112.144" y2="112.144"/><line style="stroke:#000;stroke-width:1" x1="0" x2="1235.148" y1="115.144" y2="115.144"/><rect width="365.184" height="23.311" x="434.982" fill="#EEE" style="stroke:#000;stroke-width:2" y="101.488"/><text x="440.982" y="118.057" fill="#000" font-family="sans-serif" font-size="13" font-weight="bold" lengthAdjust="spacing" textLength="346.899">Node Startup: Kubelet Prepares Registration Service</text><path fill="#FEFFDD" d="M5,139.7988 L5,194.7988 L351,194.7988 L351,149.7988 L341,139.7988 L5,139.7988" style="stroke:#181818;stroke-width:.5"/><path fill="#FEFFDD" d="M341,139.7988 L341,149.7988 L351,149.7988 L341,139.7988" style="stroke:#181818;stroke-width:.5"/><text x="11" y="157.367" fill="#000" font-family="sans-serif" font-size="13" lengthAdjust="spacing" textLength="210.749">① Start Registration gRPC service</text><text x="11" y="172.678" fill="#000" font-family="sans-serif" font-size="13" lengthAdjust="spacing" textLength="211.726">Create kubelet.sock (Unix Socket)</text><text x="11" y="187.988" fill="#000" font-family="sans-serif" font-size="13" lengthAdjust="spacing" textLength="325.324">Path: /var/lib/kubelet/device-plugins/kubelet.sock</text><rect width="1235.148" height="3" x="0" fill="#EEE" style="stroke:#eee;stroke-width:1" y="221.386"/><line style="stroke:#000;stroke-width:1" x1="0" x2="1235.148" y1="221.386" y2="221.386"/><line style="stroke:#000;stroke-width:1" x1="0" x2="1235.148" y1="224.386" y2="224.386"/><rect width="248.451" height="23.311" x="493.348" fill="#EEE" style="stroke:#000;stroke-width:2" y="210.731"/><text x="499.348" y="227.299" fill="#000" font-family="sans-serif" font-size="13" font-weight="bold" lengthAdjust="spacing" textLength="230.166">Device Plugin Starts and Registers</text><path fill="#FEFFDD" d="M387,249.041 L387,289.041 L655,289.041 L655,259.041 L645,249.041 L387,249.041" style="stroke:#181818;stroke-width:.5"/><path fill="#FEFFDD" d="M645,249.041 L645,259.041 L655,259.041 L645,249.041" style="stroke:#181818;stroke-width:.5"/><text x="393" y="266.609" fill="#000" font-family="sans-serif" font-size="13" lengthAdjust="spacing" textLength="168.594">② Device Plugin Pod starts</text><text x="393" y="281.92" fill="#000" font-family="sans-serif" font-size="13" lengthAdjust="spacing" textLength="247.927">Mount host kubelet.sock into container</text><g id="msg1" class="message" data-entity-1="part2" data-entity-2="part1"><polygon fill="#181818" points="188.761 327.283 178.761 331.283 188.761 335.283 184.761 331.283" style="stroke:#181818;stroke-width:1"/><line style="stroke:#181818;stroke-width:1" x1="182.761" x2="520.48" y1="331.283" y2="331.283"/><text x="206.57" y="311.231" fill="#000" font-family="sans-serif" font-size="13" lengthAdjust="spacing" textLength="286.102">③ Register(endpoint, version, resourceName)</text><text x="298.763" y="326.541" fill="#000" font-family="sans-serif" font-size="13" lengthAdjust="spacing" textLength="101.715">via kubelet.sock</text></g><g id="msg2" class="message" data-entity-1="part1" data-entity-2="part2"><polygon fill="#181818" points="509.48 356.594 519.48 360.594 509.48 364.594 513.48 360.594" style="stroke:#181818;stroke-width:1"/><line style="stroke:#181818;stroke-width:1;stroke-dasharray:2,2" x1="177.761" x2="515.48" y1="360.594" y2="360.594"/><text x="277.013" y="355.852" fill="#000" font-family="sans-serif" font-size="13" lengthAdjust="spacing" textLength="145.215">Registration successful</text></g><rect width="1235.148" height="3" x="0" fill="#EEE" style="stroke:#eee;stroke-width:1" y="389.249"/><line style="stroke:#000;stroke-width:1" x1="0" x2="1235.148" y1="389.249" y2="389.249"/><line style="stroke:#000;stroke-width:1" x1="0" x2="1235.148" y1="392.249" y2="392.249"/><rect width="297.791" height="23.311" x="468.678" fill="#EEE" style="stroke:#000;stroke-width:2" y="378.594"/><text x="474.678" y="395.162" fill="#000" font-family="sans-serif" font-size="13" font-weight="bold" lengthAdjust="spacing" textLength="279.506">Device Discovery and Resource Reporting</text><g id="msg3" class="message" data-entity-1="part1" data-entity-2="part2"><polygon fill="#181818" points="509.48 444.525 519.48 448.525 509.48 452.525 513.48 448.525" style="stroke:#181818;stroke-width:1"/><line style="stroke:#181818;stroke-width:1" x1="177.761" x2="515.48" y1="448.525" y2="448.525"/><text x="294.193" y="428.473" fill="#000" font-family="sans-serif" font-size="13" lengthAdjust="spacing" textLength="110.856">④ ListAndWatch()</text><text x="252.527" y="443.783" fill="#000" font-family="sans-serif" font-size="13" lengthAdjust="spacing" textLength="194.188">via Device Plugin&apos;s Unix Socket</text></g><g id="msg4" class="message" data-entity-1="part2" data-entity-2="part1"><polygon fill="#181818" points="188.761 489.147 178.761 493.147 188.761 497.147 184.761 493.147" style="stroke:#181818;stroke-width:1"/><line style="stroke:#181818;stroke-width:1;stroke-dasharray:2,2" x1="182.761" x2="520.48" y1="493.147" y2="493.147"/><text x="243.227" y="473.094" fill="#000" font-family="sans-serif" font-size="13" lengthAdjust="spacing" textLength="212.786">Return device list [{ID, Health}, ...]</text><text x="189.761" y="488.404" fill="#000" font-family="sans-serif" font-size="13" lengthAdjust="spacing" textLength="319.719">(continuously listen for device add/remove events)</text></g><g id="msg5" class="message" data-entity-1="part1" data-entity-2="part3"><polygon fill="#181818" points="625.15 533.768 635.15 537.768 625.15 541.768 629.15 537.768" style="stroke:#181818;stroke-width:1"/><line style="stroke:#181818;stroke-width:1" x1="177.761" x2="631.15" y1="537.768" y2="537.768"/><text x="336.838" y="517.715" fill="#000" font-family="sans-serif" font-size="13" lengthAdjust="spacing" textLength="141.235">⑤ Update Node status</text><text x="274.599" y="533.025" fill="#000" font-family="sans-serif" font-size="13" lengthAdjust="spacing" textLength="265.713">Node.status.capacity[nvidia.com/gpu] = 1</text></g><rect width="1235.148" height="3" x="0" fill="#EEE" style="stroke:#eee;stroke-width:1" y="566.423"/><line style="stroke:#000;stroke-width:1" x1="0" x2="1235.148" y1="566.423" y2="566.423"/><line style="stroke:#000;stroke-width:1" x1="0" x2="1235.148" y1="569.423" y2="569.423"/><rect width="136.224" height="23.311" x="549.462" fill="#EEE" style="stroke:#000;stroke-width:2" y="555.768"/><text x="555.462" y="572.336" fill="#000" font-family="sans-serif" font-size="13" font-weight="bold" lengthAdjust="spacing" textLength="117.939">User Submits Pod</text><g id="msg6" class="message" data-entity-1="part5" data-entity-2="part3"><polygon fill="#181818" points="648.15 621.699 638.15 625.699 648.15 629.699 644.15 625.699" style="stroke:#181818;stroke-width:1"/><line style="stroke:#181818;stroke-width:1" x1="642.15" x2="1210.965" y1="625.699" y2="625.699"/><text x="881.847" y="605.646" fill="#000" font-family="sans-serif" font-size="13" lengthAdjust="spacing" textLength="85.42">⑥ Create Pod</text><text x="808.072" y="620.957" fill="#000" font-family="sans-serif" font-size="13" lengthAdjust="spacing" textLength="232.972">(resources.limits: nvidia.com/gpu: 1)</text></g><g id="msg7" class="message" data-entity-1="part3" data-entity-2="part4"><polygon fill="#181818" points="892.437 651.01 902.437 655.01 892.437 659.01 896.437 655.01" style="stroke:#181818;stroke-width:1"/><line style="stroke:#181818;stroke-width:1" x1="637.15" x2="898.437" y1="655.01" y2="655.01"/><text x="710.31" y="650.268" fill="#000" font-family="sans-serif" font-size="13" lengthAdjust="spacing" textLength="120.967">Notify pending Pod</text></g><g id="msg8" class="message" data-entity-1="part4" data-entity-2="part4"><line style="stroke:#181818;stroke-width:1" x1="904.437" x2="946.437" y1="684.32" y2="684.32"/><line style="stroke:#181818;stroke-width:1" x1="946.437" x2="946.437" y1="684.32" y2="697.32"/><line style="stroke:#181818;stroke-width:1" x1="905.437" x2="946.437" y1="697.32" y2="697.32"/><polygon fill="#181818" points="915.437 693.32 905.437 697.32 915.437 701.32 911.437 697.32" style="stroke:#181818;stroke-width:1"/><text x="911.437" y="679.578" fill="#000" font-family="sans-serif" font-size="13" lengthAdjust="spacing" textLength="293.528">⑦ Filter nodes meeting resource requirements</text></g><g id="msg9" class="message" data-entity-1="part4" data-entity-2="part3"><polygon fill="#181818" points="648.15 722.631 638.15 726.631 648.15 730.631 644.15 726.631" style="stroke:#181818;stroke-width:1"/><line style="stroke:#181818;stroke-width:1" x1="642.15" x2="903.437" y1="726.631" y2="726.631"/><text x="649.15" y="721.889" fill="#000" font-family="sans-serif" font-size="13" lengthAdjust="spacing" textLength="243.287">Bind result (write Pod.spec.nodeName)</text></g><rect width="1235.148" height="3" x="0" fill="#EEE" style="stroke:#eee;stroke-width:1" y="755.286"/><line style="stroke:#000;stroke-width:1" x1="0" x2="1235.148" y1="755.286" y2="755.286"/><line style="stroke:#000;stroke-width:1" x1="0" x2="1235.148" y1="758.286" y2="758.286"/><rect width="268.668" height="23.311" x="483.24" fill="#EEE" style="stroke:#000;stroke-width:2" y="744.631"/><text x="489.24" y="761.199" fill="#000" font-family="sans-serif" font-size="13" font-weight="bold" lengthAdjust="spacing" textLength="250.383">Device Allocation and Container Start</text><g id="msg10" class="message" data-entity-1="part3" data-entity-2="part1"><polygon fill="#181818" points="188.761 795.252 178.761 799.252 188.761 803.252 184.761 799.252" style="stroke:#181818;stroke-width:1"/><line style="stroke:#181818;stroke-width:1" x1="182.761" x2="636.15" y1="799.252" y2="799.252"/><text x="305.379" y="794.51" fill="#000" font-family="sans-serif" font-size="13" lengthAdjust="spacing" textLength="204.153">Notify pending Pod on this node</text></g><g id="msg11" class="message" data-entity-1="part1" data-entity-2="part2"><polygon fill="#181818" points="509.48 824.563 519.48 828.563 509.48 832.563 513.48 828.563" style="stroke:#181818;stroke-width:1"/><line style="stroke:#181818;stroke-width:1" x1="177.761" x2="515.48" y1="828.563" y2="828.563"/><text x="281.669" y="823.82" fill="#000" font-family="sans-serif" font-size="13" lengthAdjust="spacing" textLength="135.903">⑧ Allocate(deviceIDs)</text></g><g id="msg12" class="message" data-entity-1="part2" data-entity-2="part1"><polygon fill="#181818" points="188.761 869.184 178.761 873.184 188.761 877.184 184.761 873.184" style="stroke:#181818;stroke-width:1"/><line style="stroke:#181818;stroke-width:1;stroke-dasharray:2,2" x1="182.761" x2="520.48" y1="873.184" y2="873.184"/><text x="276.083" y="853.131" fill="#000" font-family="sans-serif" font-size="13" lengthAdjust="spacing" textLength="147.075">Return allocation result</text><text x="248.477" y="868.441" fill="#000" font-family="sans-serif" font-size="13" lengthAdjust="spacing" textLength="202.287">(device file paths, env vars, etc.)</text></g><path fill="#FEFFDD" d="M54,886.1836 L54,941.1836 L299,941.1836 L299,896.1836 L289,886.1836 L54,886.1836" style="stroke:#181818;stroke-width:.5"/><path fill="#FEFFDD" d="M289,886.1836 L289,896.1836 L299,896.1836 L289,886.1836" style="stroke:#181818;stroke-width:.5"/><text x="60" y="903.752" fill="#000" font-family="sans-serif" font-size="13" lengthAdjust="spacing" textLength="224.993">⑨ Start container, inject device info</text><text x="60" y="919.063" fill="#000" font-family="sans-serif" font-size="13" lengthAdjust="spacing" textLength="125.976">Mount /dev/nvidia0</text><text x="60" y="934.373" fill="#000" font-family="sans-serif" font-size="13" lengthAdjust="spacing" textLength="192.461">Inject NVIDIA_VISIBLE_DEVICES</text><?plantuml-src RLJRRjf047ttLupoKf30RbwHg4HmgbWa20MHFYHHj5aFiCNiEdiXHLK_8d_GU_jT-PBE-W8uwTkkT-RCcJDdR5P2vaopDHXyS2WvNg0nR863J2maS9GMTM1sKHfDhgIfequmKuy3hTKZMEqm22ZA2Yvo9YqSZTmzPcYFW1aODPzYt0YECCdSGiWRsOePhfMSeeM9Ijj5HZnffWmc2KnHRr0NptHjlg-eMjVm9QOkgsAcmxE0SQiq7CrCzMqM1Fq-Z5MACBMKx_8UL4HXef4WqS0bBeIncbcXP57Ka-ttWq0gYw280pK4yFpqjGHf9Ymk9qFIiyYYgA56HbchiaXe55z1QoR59vZI4MsROYRCBdiGRPYECd4VLR5HMiZKpGkPJ7G84Q1CmTCf-cdeMN8om2YY98RQlA1Fwdh-trvaalfWYcnwlb2EX5qgOvlaXRGAk9AM2Kdks1E99z1z1oFe4VBtNUaM1UIAaZf0bGqfrF4-Kavp7BCrjc_aHh16YM04NK8Yl5vJMkCu9-lDNNROTYmCzrrjgvPBR3haYWmY5qNl8wWHdvz-m3bX3cJwWLc-R5KC6bAy8QliPrIqLlLsYTPf2ULi82CWkFwSn1quGvRPvPSEX65uIwRs4Wdfb3FPjeX32NCoOvN9qZJIPFiD0cveqKox8kcTxbd-X5cUUkiKRgMnM6TkfB-4vINaB6TSsEqryKy52xbQHulStK8VZWk1lErXwkxNWlpWX-kLc1qM-LNxarw9SpqO4sR29_MW2Ts3utRWSmc2reiWnigA-HPochANcc02_x1xVtxw3Uz5HaOWbwIqN6l4OYXrAJeyE45AU0tgt9BUYQ1vKfpBBBGUjIXfXYP77dgmmZw7JXXacUAbLRmLXhL9gpNrtLVaH_-b3fHeby8KL1kM-LDZOwkSNnBJm5xRWkqPbCH9r6hWSv4XvBJffWCeDq3Rxa-MX-tNVvQ_5UNTddLexpuYjxLzX9ohtPBwFqLKJkejVKpAoF5L4YU3kwjacfoSdzx5frV9y7IwNzX_?></g></svg>