<?plantuml 1.2026.2?><svg xmlns="http://www.w3.org/2000/svg" xmlns:xlink="http://www.w3.org/1999/xlink" width="1068" height="1038" contentStyleType="text/css" data-diagram-type="SEQUENCE" preserveAspectRatio="none" style="width:1068px;height:1038px;background:#fff" version="1.1" viewBox="0 0 1068 1038" zoomAndPan="magnify"><g><g id="part1-lifeline" class="participant-lifeline" data-entity-uid="part1" data-qualified-name="K"><g><title>Kubelet</title><rect width="8" height="875.627" x="175.761" y="81.488" fill="#000" fill-opacity="0"/><line style="stroke:#181818;stroke-width:.5;stroke-dasharray:5,5" x1="179" x2="179" y1="81.488" y2="957.115"/></g></g><g id="part2-lifeline" class="participant-lifeline" data-entity-uid="part2" data-qualified-name="DP"><g><title>Device Plugin</title><rect width="8" height="875.627" x="485.863" y="81.488" fill="#000" fill-opacity="0"/><line style="stroke:#181818;stroke-width:.5;stroke-dasharray:5,5" x1="489.044" x2="489.044" y1="81.488" y2="957.115"/></g></g><g id="part3-lifeline" class="participant-lifeline" data-entity-uid="part3" data-qualified-name="API"><g><title>API Server</title><rect width="8" height="875.627" x="601.533" y="81.488" fill="#000" fill-opacity="0"/><line style="stroke:#181818;stroke-width:.5;stroke-dasharray:5,5" x1="604.681" x2="604.681" y1="81.488" y2="957.115"/></g></g><g id="part4-lifeline" class="participant-lifeline" data-entity-uid="part4" data-qualified-name="SCH"><g><title>kube-scheduler</title><rect width="8" height="875.627" x="861.577" y="81.488" fill="#000" fill-opacity="0"/><line style="stroke:#181818;stroke-width:.5;stroke-dasharray:5,5" x1="864.85" x2="864.85" y1="81.488" y2="957.115"/></g></g><g id="part5-lifeline" class="participant-lifeline" data-entity-uid="part5" data-qualified-name="U"><g><title>..</title><rect width="8" height="875.627" x="1035.69" y="81.488" fill="#000" fill-opacity="0"/><line style="stroke:#181818;stroke-width:.5;stroke-dasharray:5,5" x1="1039.69" x2="1039.69" y1="81.488" y2="957.115"/></g></g><g id="part1-head" class="participant participant-head" data-entity-uid="part1" data-qualified-name="K"><rect width="65.522" height="30.488" x="147" y="50" fill="#E2E2F0" rx="2.5" ry="2.5" style="stroke:#181818;stroke-width:.5"/><text x="154" y="70.535" fill="#000" font-family="sans-serif" font-size="14" lengthAdjust="spacing" textLength="51.523">Kubelet</text></g><g id="part1-tail" class="participant participant-tail" data-entity-uid="part1" data-qualified-name="K"><rect width="65.522" height="30.488" x="147" y="956.115" fill="#E2E2F0" rx="2.5" ry="2.5" style="stroke:#181818;stroke-width:.5"/><text x="154" y="976.65" fill="#000" font-family="sans-serif" font-size="14" lengthAdjust="spacing" textLength="51.523">Kubelet</text></g><g id="part2-head" class="participant participant-head" data-entity-uid="part2" data-qualified-name="DP"><rect width="129.637" height="46.977" x="425.044" y="33.512" fill="#E2E2F0" rx="2.5" ry="2.5" style="stroke:#181818;stroke-width:.5"/><text x="444.404" y="54.047" fill="#000" font-family="sans-serif" font-size="14" lengthAdjust="spacing" textLength="90.918">Device Plugin</text><text x="432.044" y="70.535" fill="#000" font-family="sans-serif" font-size="14" lengthAdjust="spacing" textLength="115.637">(DaemonSet Pod)</text></g><g id="part2-tail" class="participant participant-tail" data-entity-uid="part2" data-qualified-name="DP"><rect width="129.637" height="46.977" x="425.044" y="956.115" fill="#E2E2F0" rx="2.5" ry="2.5" style="stroke:#181818;stroke-width:.5"/><text x="444.404" y="976.65" fill="#000" font-family="sans-serif" font-size="14" lengthAdjust="spacing" textLength="90.918">Device Plugin</text><text x="432.044" y="993.139" fill="#000" font-family="sans-serif" font-size="14" lengthAdjust="spacing" textLength="115.637">(DaemonSet Pod)</text></g><g id="part3-head" class="participant participant-head" data-entity-uid="part3" data-qualified-name="API"><rect width="81.703" height="30.488" x="564.681" y="50" fill="#E2E2F0" rx="2.5" ry="2.5" style="stroke:#181818;stroke-width:.5"/><text x="571.681" y="70.535" fill="#000" font-family="sans-serif" font-size="14" lengthAdjust="spacing" textLength="67.703">API Server</text></g><g id="part3-tail" class="participant participant-tail" data-entity-uid="part3" data-qualified-name="API"><rect width="81.703" height="30.488" x="564.681" y="956.115" fill="#E2E2F0" rx="2.5" ry="2.5" style="stroke:#181818;stroke-width:.5"/><text x="571.681" y="976.65" fill="#000" font-family="sans-serif" font-size="14" lengthAdjust="spacing" textLength="67.703">API Server</text></g><g id="part4-head" class="participant participant-head" data-entity-uid="part4" data-qualified-name="SCH"><rect width="121.454" height="30.488" x="804.85" y="50" fill="#E2E2F0" rx="2.5" ry="2.5" style="stroke:#181818;stroke-width:.5"/><text x="811.85" y="70.535" fill="#000" font-family="sans-serif" font-size="14" lengthAdjust="spacing" textLength="107.454">kube-scheduler</text></g><g id="part4-tail" class="participant participant-tail" data-entity-uid="part4" data-qualified-name="SCH"><rect width="121.454" height="30.488" x="804.85" y="956.115" fill="#E2E2F0" rx="2.5" ry="2.5" style="stroke:#181818;stroke-width:.5"/><text x="811.85" y="976.65" fill="#000" font-family="sans-serif" font-size="14" lengthAdjust="spacing" textLength="107.454">kube-scheduler</text></g><g id="part5-head" class="participant participant-head" data-entity-uid="part5" data-qualified-name="U"><text x="1022.69" y="78.535" fill="#000" font-family="sans-serif" font-size="14" lengthAdjust="spacing" textLength="28">用户</text><ellipse cx="1039.69" cy="13.5" fill="#E2E2F0" rx="8" ry="8" style="stroke:#181818;stroke-width:.5"/><path fill="none" d="M1039.6899,21.5 L1039.6899,48.5 M1026.6899,29.5 L1052.6899,29.5 M1039.6899,48.5 L1026.6899,63.5 M1039.6899,48.5 L1052.6899,63.5" style="stroke:#181818;stroke-width:.5"/></g><g id="part5-tail" class="participant participant-tail" data-entity-uid="part5" data-qualified-name="U"><text x="1022.69" y="969.65" fill="#000" font-family="sans-serif" font-size="14" lengthAdjust="spacing" textLength="28">用户</text><ellipse cx="1039.69" cy="981.104" fill="#E2E2F0" rx="8" ry="8" style="stroke:#181818;stroke-width:.5"/><path fill="none" d="M1039.6899,989.1035 L1039.6899,1016.1035 M1026.6899,997.1035 L1052.6899,997.1035 M1039.6899,1016.1035 L1026.6899,1031.1035 M1039.6899,1016.1035 L1052.6899,1031.1035" style="stroke:#181818;stroke-width:.5"/></g><rect width="1061.69" height="3" x="0" fill="#EEE" style="stroke:#eee;stroke-width:1" y="112.144"/><line style="stroke:#000;stroke-width:1" x1="0" x2="1061.69" y1="112.144" y2="112.144"/><line style="stroke:#000;stroke-width:1" x1="0" x2="1061.69" y1="115.144" y2="115.144"/><rect width="216.681" height="23.311" x="422.505" fill="#EEE" style="stroke:#000;stroke-width:2" y="101.488"/><text x="428.505" y="118.057" fill="#000" font-family="sans-serif" font-size="13" font-weight="bold" lengthAdjust="spacing" textLength="198.396">节点启动：Kubelet 准备注册服务</text><path fill="#FEFFDD" d="M5,139.7988 L5,194.7988 L354,194.7988 L354,149.7988 L344,139.7988 L5,139.7988" style="stroke:#181818;stroke-width:.5"/><path fill="#FEFFDD" d="M344,139.7988 L344,149.7988 L354,149.7988 L344,139.7988" style="stroke:#181818;stroke-width:.5"/><text x="11" y="157.367" fill="#000" font-family="sans-serif" font-size="13" lengthAdjust="spacing" textLength="189.947">① 启动 Registration gRPC 服务</text><text x="11" y="172.678" fill="#000" font-family="sans-serif" font-size="13" lengthAdjust="spacing" textLength="210.317">创建 kubelet.sock（Unix Socket）</text><text x="11" y="187.988" fill="#000" font-family="sans-serif" font-size="13" lengthAdjust="spacing" textLength="328.802">路径：/var/lib/kubelet/device-plugins/kubelet.sock</text><rect width="1061.69" height="3" x="0" fill="#EEE" style="stroke:#eee;stroke-width:1" y="221.386"/><line style="stroke:#000;stroke-width:1" x1="0" x2="1061.69" y1="221.386" y2="221.386"/><line style="stroke:#000;stroke-width:1" x1="0" x2="1061.69" y1="224.386" y2="224.386"/><rect width="178.334" height="23.311" x="441.678" fill="#EEE" style="stroke:#000;stroke-width:2" y="210.731"/><text x="447.678" y="227.299" fill="#000" font-family="sans-serif" font-size="13" font-weight="bold" lengthAdjust="spacing" textLength="160.05">Device Plugin 启动并注册</text><path fill="#FEFFDD" d="M370,249.041 L370,289.041 L609,289.041 L609,259.041 L599,249.041 L370,249.041" style="stroke:#181818;stroke-width:.5"/><path fill="#FEFFDD" d="M599,249.041 L599,259.041 L609,259.041 L599,249.041" style="stroke:#181818;stroke-width:.5"/><text x="376" y="266.609" fill="#000" font-family="sans-serif" font-size="13" lengthAdjust="spacing" textLength="159.117">② Device Plugin Pod 启动</text><text x="376" y="281.92" fill="#000" font-family="sans-serif" font-size="13" lengthAdjust="spacing" textLength="218.163">将宿主机 kubelet.sock 挂载到容器内</text><g id="msg1" class="message" data-entity-1="part2" data-entity-2="part1"><polygon fill="#181818" points="190.761 327.283 180.761 331.283 190.761 335.283 186.761 331.283" style="stroke:#181818;stroke-width:1"/><line style="stroke:#181818;stroke-width:1" x1="184.761" x2="488.863" y1="331.283" y2="331.283"/><text x="191.761" y="311.231" fill="#000" font-family="sans-serif" font-size="13" lengthAdjust="spacing" textLength="286.102">③ Register(endpoint, version, resourceName)</text><text x="264.731" y="326.541" fill="#000" font-family="sans-serif" font-size="13" lengthAdjust="spacing" textLength="140.163">通过 kubelet.sock 调用</text></g><g id="msg2" class="message" data-entity-1="part1" data-entity-2="part2"><polygon fill="#181818" points="477.863 356.594 487.863 360.594 477.863 364.594 481.863 360.594" style="stroke:#181818;stroke-width:1"/><line style="stroke:#181818;stroke-width:1;stroke-dasharray:2,2" x1="179.761" x2="483.863" y1="360.594" y2="360.594"/><text x="308.812" y="355.852" fill="#000" font-family="sans-serif" font-size="13" lengthAdjust="spacing" textLength="52">注册成功</text></g><rect width="1061.69" height="3" x="0" fill="#EEE" style="stroke:#eee;stroke-width:1" y="389.249"/><line style="stroke:#000;stroke-width:1" x1="0" x2="1061.69" y1="389.249" y2="389.249"/><line style="stroke:#000;stroke-width:1" x1="0" x2="1061.69" y1="392.249" y2="392.249"/><rect width="135.285" height="23.311" x="463.203" fill="#EEE" style="stroke:#000;stroke-width:2" y="378.594"/><text x="469.203" y="395.162" fill="#000" font-family="sans-serif" font-size="13" font-weight="bold" lengthAdjust="spacing" textLength="117">设备发现与资源上报</text><g id="msg3" class="message" data-entity-1="part1" data-entity-2="part2"><polygon fill="#181818" points="477.863 444.525 487.863 448.525 477.863 452.525 481.863 448.525" style="stroke:#181818;stroke-width:1"/><line style="stroke:#181818;stroke-width:1" x1="179.761" x2="483.863" y1="448.525" y2="448.525"/><text x="279.384" y="428.473" fill="#000" font-family="sans-serif" font-size="13" lengthAdjust="spacing" textLength="110.856">④ ListAndWatch()</text><text x="214.74" y="443.783" fill="#000" font-family="sans-serif" font-size="13" lengthAdjust="spacing" textLength="240.144">通过 Device Plugin 的 Unix Socket 调用</text></g><g id="msg4" class="message" data-entity-1="part2" data-entity-2="part1"><polygon fill="#181818" points="190.761 489.147 180.761 493.147 190.761 497.147 186.761 493.147" style="stroke:#181818;stroke-width:1"/><line style="stroke:#181818;stroke-width:1;stroke-dasharray:2,2" x1="184.761" x2="488.863" y1="493.147" y2="493.147"/><text x="243.831" y="473.094" fill="#000" font-family="sans-serif" font-size="13" lengthAdjust="spacing" textLength="181.962">返回设备列表 [{ID, Health}, ...]</text><text x="250.312" y="488.404" fill="#000" font-family="sans-serif" font-size="13" lengthAdjust="spacing" textLength="169">（持续监听设备上下线变化）</text></g><g id="msg5" class="message" data-entity-1="part1" data-entity-2="part3"><polygon fill="#181818" points="593.533 533.768 603.533 537.768 593.533 541.768 597.533 537.768" style="stroke:#181818;stroke-width:1"/><line style="stroke:#181818;stroke-width:1" x1="179.761" x2="599.533" y1="537.768" y2="537.768"/><text x="337.47" y="517.715" fill="#000" font-family="sans-serif" font-size="13" lengthAdjust="spacing" textLength="110.354">⑤ 更新 Node 状态</text><text x="259.791" y="533.025" fill="#000" font-family="sans-serif" font-size="13" lengthAdjust="spacing" textLength="265.713">Node.status.capacity[nvidia.com/gpu] = 1</text></g><rect width="1061.69" height="3" x="0" fill="#EEE" style="stroke:#eee;stroke-width:1" y="566.423"/><line style="stroke:#000;stroke-width:1" x1="0" x2="1061.69" y1="566.423" y2="566.423"/><line style="stroke:#000;stroke-width:1" x1="0" x2="1061.69" y1="569.423" y2="569.423"/><rect width="99.459" height="23.311" x="481.116" fill="#EEE" style="stroke:#000;stroke-width:2" y="555.768"/><text x="487.116" y="572.336" fill="#000" font-family="sans-serif" font-size="13" font-weight="bold" lengthAdjust="spacing" textLength="81.174">用户提交 Pod</text><g id="msg6" class="message" data-entity-1="part5" data-entity-2="part3"><polygon fill="#181818" points="616.533 621.699 606.533 625.699 616.533 629.699 612.533 625.699" style="stroke:#181818;stroke-width:1"/><line style="stroke:#181818;stroke-width:1" x1="610.533" x2="1038.69" y1="625.699" y2="625.699"/><text x="787.322" y="605.646" fill="#000" font-family="sans-serif" font-size="13" lengthAdjust="spacing" textLength="70.58">⑥ 创建 Pod</text><text x="706.125" y="620.957" fill="#000" font-family="sans-serif" font-size="13" lengthAdjust="spacing" textLength="232.972">(resources.limits: nvidia.com/gpu: 1)</text></g><g id="msg7" class="message" data-entity-1="part3" data-entity-2="part4"><polygon fill="#181818" points="853.577 651.01 863.577 655.01 853.577 659.01 857.577 655.01" style="stroke:#181818;stroke-width:1"/><line style="stroke:#181818;stroke-width:1" x1="605.533" x2="859.577" y1="655.01" y2="655.01"/><text x="689.322" y="650.268" fill="#000" font-family="sans-serif" font-size="13" lengthAdjust="spacing" textLength="92.466">通知待调度 Pod</text></g><g id="msg8" class="message" data-entity-1="part4" data-entity-2="part4"><line style="stroke:#181818;stroke-width:1" x1="865.577" x2="907.577" y1="684.32" y2="684.32"/><line style="stroke:#181818;stroke-width:1" x1="907.577" x2="907.577" y1="684.32" y2="697.32"/><line style="stroke:#181818;stroke-width:1" x1="866.577" x2="907.577" y1="697.32" y2="697.32"/><polygon fill="#181818" points="876.577 693.32 866.577 697.32 876.577 701.32 872.577 697.32" style="stroke:#181818;stroke-width:1"/><text x="872.577" y="679.578" fill="#000" font-family="sans-serif" font-size="13" lengthAdjust="spacing" textLength="160.113">⑦ 筛选满足资源要求的节点</text></g><g id="msg9" class="message" data-entity-1="part4" data-entity-2="part3"><polygon fill="#181818" points="616.533 722.631 606.533 726.631 616.533 730.631 612.533 726.631" style="stroke:#181818;stroke-width:1"/><line style="stroke:#181818;stroke-width:1" x1="610.533" x2="864.577" y1="726.631" y2="726.631"/><text x="617.533" y="721.889" fill="#000" font-family="sans-serif" font-size="13" lengthAdjust="spacing" textLength="236.044">绑定结果（写入 Pod.spec.nodeName）</text></g><rect width="1061.69" height="3" x="0" fill="#EEE" style="stroke:#eee;stroke-width:1" y="755.286"/><line style="stroke:#000;stroke-width:1" x1="0" x2="1061.69" y1="755.286" y2="755.286"/><line style="stroke:#000;stroke-width:1" x1="0" x2="1061.69" y1="758.286" y2="758.286"/><rect width="135.285" height="23.311" x="463.203" fill="#EEE" style="stroke:#000;stroke-width:2" y="744.631"/><text x="469.203" y="761.199" fill="#000" font-family="sans-serif" font-size="13" font-weight="bold" lengthAdjust="spacing" textLength="117">设备分配与容器启动</text><g id="msg10" class="message" data-entity-1="part3" data-entity-2="part1"><polygon fill="#181818" points="190.761 795.252 180.761 799.252 190.761 803.252 186.761 799.252" style="stroke:#181818;stroke-width:1"/><line style="stroke:#181818;stroke-width:1" x1="184.761" x2="604.533" y1="799.252" y2="799.252"/><text x="318.357" y="794.51" fill="#000" font-family="sans-serif" font-size="13" lengthAdjust="spacing" textLength="148.58">通知本节点有 Pod 待启动</text></g><g id="msg11" class="message" data-entity-1="part1" data-entity-2="part2"><polygon fill="#181818" points="477.863 824.563 487.863 828.563 477.863 832.563 481.863 828.563" style="stroke:#181818;stroke-width:1"/><line style="stroke:#181818;stroke-width:1" x1="179.761" x2="483.863" y1="828.563" y2="828.563"/><text x="266.86" y="823.82" fill="#000" font-family="sans-serif" font-size="13" lengthAdjust="spacing" textLength="135.903">⑧ Allocate(deviceIDs)</text></g><g id="msg12" class="message" data-entity-1="part2" data-entity-2="part1"><polygon fill="#181818" points="190.761 869.184 180.761 873.184 190.761 877.184 186.761 873.184" style="stroke:#181818;stroke-width:1"/><line style="stroke:#181818;stroke-width:1;stroke-dasharray:2,2" x1="184.761" x2="488.863" y1="873.184" y2="873.184"/><text x="295.812" y="853.131" fill="#000" font-family="sans-serif" font-size="13" lengthAdjust="spacing" textLength="78">返回分配结果</text><text x="243.812" y="868.441" fill="#000" font-family="sans-serif" font-size="13" lengthAdjust="spacing" textLength="182">（设备文件路径、环境变量等）</text></g><path fill="#FEFFDD" d="M77,886.1836 L77,941.1836 L281,941.1836 L281,896.1836 L271,886.1836 L77,886.1836" style="stroke:#181818;stroke-width:.5"/><path fill="#FEFFDD" d="M271,886.1836 L271,896.1836 L281,896.1836 L271,886.1836" style="stroke:#181818;stroke-width:.5"/><text x="83" y="903.752" fill="#000" font-family="sans-serif" font-size="13" lengthAdjust="spacing" textLength="160.113">⑨ 启动容器，注入设备信息</text><text x="83" y="919.063" fill="#000" font-family="sans-serif" font-size="13" lengthAdjust="spacing" textLength="111.795">挂载 /dev/nvidia0</text><text x="83" y="934.373" fill="#000" font-family="sans-serif" font-size="13" lengthAdjust="spacing" textLength="183.93">注入 NVIDIA_VISIBLE_DEVICES</text><?plantuml-src PLHTJzjM6BxthtZ55KZWhBT8cPGIf4RfKDG8Tb6godMEWeLpdFcSq4tJ94B91raAYLQnbKJjqX6MYmAPkb58AFmNbcERA_x2pl5n865tjj-lvtsUvpLPDN1MixKC4FHT3c4TVOC8qT8eOXff33h25DaAkSso4SbQc0op7YBJUXcnRUibK3k758LdKKCtiXgcC17FlK0ceXEW4OYFXw9epT0H9CnSsi3BU3AgeOo5auX2mafD-HNHn7X991639BBNaEs7-UjuV9LFco7w2ahbp20dEVT8qNHgsJ3XlkauvS_-rqL52OV1gsou6sUiTimgdPlplG0hi5AHxPUSJnrMh3hDrwpIWd1OKR154LXyDby4uAh-EyXAU8BI1g6sHWqBG_f9OWva5SzYvGRhzs1LTbQ9fQ_Ud9SNiV4z9FapeZVdMppD-tpCBZOvXD2QPeTCuqKeg0YbV99ciZv993JQI44u1GAKlyiOcm4oTdOYjxY7dzCg5cZTA-Aq1uK2URV8ZYu7ftsdEOuVdEg6z-KBAtVPqHbxoziNHf144p3pDSHXblV_4323x4cUaBKCJAU1poUSfsbX8ojdwsX1ow2fPNozlkTTbiOdUTrNN3Cb3ZEy9-yy2u4evHghl9SI7brmhTXEtTtk3awtlNysdLvjS5fnAcr_wJWCIw_gVy1ZZYQ2KzzgL5-Pl1iwJeExjmaZ2WrHYCs2rRpBDwpnBXXT_jLhTU3fZx7eD3n2cabNVfe6LLMVBMCkjLFDk_r3jr5djO-oW8CRdFxizYxPpc-ikYiC854ASmkO--0q_dPskx1WfH2ubHDdFR-CnOjAg4PpHDMrhAORz8UdUCr86PggMvbGEfjx1c5uuBCYdUxir0QzVLzMGSNYw93sq9eyoczlA0PHJIDZK38BuwrduS6K8cfv2tvHl0MdpdtVPXS5JW_h7OW-YeZS9bpL3y0zR5olRpdzbdVoIKhZ7UITlpOunVBsXYKIbjkliwCzj_-Bywx9kMF5jwpG5frLaaMwYZa5mYq-PNVQbulNXTTS-y2EyYR5mW7U-2rQf_bHZdMQMzBj5uN0yAC--HCYfcdf6aMJylnYKJBrV_tbO8dMrrhYSNPBW_w9lEX_r_FkzZ7xy8fhVLtQSG-tVEpt_oITuRtw6zoSLuND2-t0BvSj9t_Cy-JTWVWbXAGwNuclVYeiBCMYiSZpfLWozl3n_FFe_59iRZvvTvZ_0G00?></g></svg>