<?plantuml 1.2026.2?><svg xmlns="http://www.w3.org/2000/svg" xmlns:xlink="http://www.w3.org/1999/xlink" width="1012" height="876" contentStyleType="text/css" data-diagram-type="SEQUENCE" preserveAspectRatio="none" style="width:1012px;height:876px;background:#fff" version="1.1" viewBox="0 0 1012 876" zoomAndPan="magnify"><g><g id="part1-lifeline" class="participant-lifeline" data-entity-uid="part1" data-qualified-name="user"><g><title>..</title><rect width="8" height="730.385" x="22" y="67.488" fill="#000" fill-opacity="0"/><line style="stroke:#181818;stroke-width:.5;stroke-dasharray:5,5" x1="26" x2="26" y1="67.488" y2="797.873"/></g></g><g id="part2-lifeline" class="participant-lifeline" data-entity-uid="part2" data-qualified-name="webhook"><g><title>MutatingWebhook</title><rect width="8" height="730.385" x="228.628" y="67.488" fill="#000" fill-opacity="0"/><line style="stroke:#181818;stroke-width:.5;stroke-dasharray:5,5" x1="232.091" x2="232.091" y1="67.488" y2="797.873"/></g></g><g id="part3-lifeline" class="participant-lifeline" data-entity-uid="part3" data-qualified-name="sched"><g><title>Scheduler-Extender</title><rect width="8" height="730.385" x="424.571" y="67.488" fill="#000" fill-opacity="0"/><line style="stroke:#181818;stroke-width:.5;stroke-dasharray:5,5" x1="428.265" x2="428.265" y1="67.488" y2="797.873"/></g></g><g id="part4-lifeline" class="participant-lifeline" data-entity-uid="part4" data-qualified-name="dp"><g><title>Device Plugin</title><rect width="8" height="730.385" x="651.76" y="67.488" fill="#000" fill-opacity="0"/><line style="stroke:#181818;stroke-width:.5;stroke-dasharray:5,5" x1="655.301" x2="655.301" y1="67.488" y2="797.873"/></g></g><g id="part5-lifeline" class="participant-lifeline" data-entity-uid="part5" data-qualified-name="core"><g><title>HAMi-Core</title><rect width="8" height="730.385" x="800.184" y="67.488" fill="#000" fill-opacity="0"/><line style="stroke:#181818;stroke-width:.5;stroke-dasharray:5,5" x1="803.631" x2="803.631" y1="67.488" y2="797.873"/></g></g><g id="part6-lifeline" class="participant-lifeline" data-entity-uid="part6" data-qualified-name="gpu"><g><title>.. GPU</title><rect width="8" height="730.385" x="963.693" y="67.488" fill="#000" fill-opacity="0"/><line style="stroke:#181818;stroke-width:.5;stroke-dasharray:5,5" x1="966.7" x2="966.7" y1="67.488" y2="797.873"/></g></g><g id="part1-head" class="participant participant-head" data-entity-uid="part1" data-qualified-name="user"><rect width="42" height="30.488" x="5" y="36" fill="#E2E2F0" rx="2.5" ry="2.5" style="stroke:#181818;stroke-width:.5"/><text x="12" y="56.535" fill="#000" font-family="sans-serif" font-size="14" lengthAdjust="spacing" textLength="28">用户</text></g><g id="part1-tail" class="participant participant-tail" data-entity-uid="part1" data-qualified-name="user"><rect width="42" height="30.488" x="5" y="796.873" fill="#E2E2F0" rx="2.5" ry="2.5" style="stroke:#181818;stroke-width:.5"/><text x="12" y="817.408" fill="#000" font-family="sans-serif" font-size="14" lengthAdjust="spacing" textLength="28">用户</text></g><g id="part2-head" class="participant participant-head" data-entity-uid="part2" data-qualified-name="webhook"><rect width="137.074" height="46.977" x="164.091" y="19.512" fill="#CEF" rx="2.5" ry="2.5" style="stroke:#181818;stroke-width:.5"/><text x="171.091" y="40.047" fill="#000" font-family="sans-serif" font-size="14" lengthAdjust="spacing" textLength="123.074">MutatingWebhook</text><text x="193.076" y="56.535" fill="#000" font-family="sans-serif" font-size="14" lengthAdjust="spacing" textLength="79.106">[集群控制层]</text></g><g id="part2-tail" class="participant participant-tail" data-entity-uid="part2" data-qualified-name="webhook"><rect width="137.074" height="46.977" x="164.091" y="796.873" fill="#CEF" rx="2.5" ry="2.5" style="stroke:#181818;stroke-width:.5"/><text x="171.091" y="817.408" fill="#000" font-family="sans-serif" font-size="14" lengthAdjust="spacing" textLength="123.074">MutatingWebhook</text><text x="193.076" y="833.896" fill="#000" font-family="sans-serif" font-size="14" lengthAdjust="spacing" textLength="79.106">[集群控制层]</text></g><g id="part3-head" class="participant participant-head" data-entity-uid="part3" data-qualified-name="sched"><rect width="148.613" height="46.977" x="354.265" y="19.512" fill="#CEF" rx="2.5" ry="2.5" style="stroke:#181818;stroke-width:.5"/><text x="361.265" y="40.047" fill="#000" font-family="sans-serif" font-size="14" lengthAdjust="spacing" textLength="134.613">Scheduler-Extender</text><text x="389.019" y="56.535" fill="#000" font-family="sans-serif" font-size="14" lengthAdjust="spacing" textLength="79.106">[集群控制层]</text></g><g id="part3-tail" class="participant participant-tail" data-entity-uid="part3" data-qualified-name="sched"><rect width="148.613" height="46.977" x="354.265" y="796.873" fill="#CEF" rx="2.5" ry="2.5" style="stroke:#181818;stroke-width:.5"/><text x="361.265" y="817.408" fill="#000" font-family="sans-serif" font-size="14" lengthAdjust="spacing" textLength="134.613">Scheduler-Extender</text><text x="389.019" y="833.896" fill="#000" font-family="sans-serif" font-size="14" lengthAdjust="spacing" textLength="79.106">[集群控制层]</text></g><g id="part4-head" class="participant participant-head" data-entity-uid="part4" data-qualified-name="dp"><rect width="104.918" height="46.977" x="603.301" y="19.512" fill="#CFC" rx="2.5" ry="2.5" style="stroke:#181818;stroke-width:.5"/><text x="610.301" y="40.047" fill="#000" font-family="sans-serif" font-size="14" lengthAdjust="spacing" textLength="90.918">Device Plugin</text><text x="616.207" y="56.535" fill="#000" font-family="sans-serif" font-size="14" lengthAdjust="spacing" textLength="79.106">[节点代理层]</text></g><g id="part4-tail" class="participant participant-tail" data-entity-uid="part4" data-qualified-name="dp"><rect width="104.918" height="46.977" x="603.301" y="796.873" fill="#CFC" rx="2.5" ry="2.5" style="stroke:#181818;stroke-width:.5"/><text x="610.301" y="817.408" fill="#000" font-family="sans-serif" font-size="14" lengthAdjust="spacing" textLength="90.918">Device Plugin</text><text x="616.207" y="833.896" fill="#000" font-family="sans-serif" font-size="14" lengthAdjust="spacing" textLength="79.106">[节点代理层]</text></g><g id="part5-head" class="participant participant-head" data-entity-uid="part5" data-qualified-name="core"><rect width="107.106" height="46.977" x="750.631" y="19.512" fill="#FFC" rx="2.5" ry="2.5" style="stroke:#181818;stroke-width:.5"/><text x="766.2" y="40.047" fill="#000" font-family="sans-serif" font-size="14" lengthAdjust="spacing" textLength="75.968">HAMi-Core</text><text x="757.631" y="56.535" fill="#000" font-family="sans-serif" font-size="14" lengthAdjust="spacing" textLength="93.106">[容器内隔离层]</text></g><g id="part5-tail" class="participant participant-tail" data-entity-uid="part5" data-qualified-name="core"><rect width="107.106" height="46.977" x="750.631" y="796.873" fill="#FFC" rx="2.5" ry="2.5" style="stroke:#181818;stroke-width:.5"/><text x="766.2" y="817.408" fill="#000" font-family="sans-serif" font-size="14" lengthAdjust="spacing" textLength="75.968">HAMi-Core</text><text x="757.631" y="833.896" fill="#000" font-family="sans-serif" font-size="14" lengthAdjust="spacing" textLength="93.106">[容器内隔离层]</text></g><g id="part6-head" class="participant participant-head" data-entity-uid="part6" data-qualified-name="gpu"><text x="934.7" y="64.535" fill="#000" font-family="sans-serif" font-size="14" lengthAdjust="spacing" textLength="59.985">物理 GPU</text><path fill="#E2E2F0" d="M949.6929,15 C949.6929,5 967.6929,5 967.6929,5 C967.6929,5 985.6929,5 985.6929,15 L985.6929,41 C985.6929,51 967.6929,51 967.6929,51 C967.6929,51 949.6929,51 949.6929,41 L949.6929,15" style="stroke:#181818;stroke-width:.5"/><path fill="none" d="M949.6929,15 C949.6929,25 967.6929,25 967.6929,25 C967.6929,25 985.6929,25 985.6929,15" style="stroke:#181818;stroke-width:.5"/></g><g id="part6-tail" class="participant participant-tail" data-entity-uid="part6" data-qualified-name="gpu"><text x="934.7" y="810.408" fill="#000" font-family="sans-serif" font-size="14" lengthAdjust="spacing" textLength="59.985">物理 GPU</text><path fill="#E2E2F0" d="M949.6929,823.3613 C949.6929,813.3613 967.6929,813.3613 967.6929,813.3613 C967.6929,813.3613 985.6929,813.3613 985.6929,823.3613 L985.6929,849.3613 C985.6929,859.3613 967.6929,859.3613 967.6929,859.3613 C967.6929,859.3613 949.6929,859.3613 949.6929,849.3613 L949.6929,823.3613" style="stroke:#181818;stroke-width:.5"/><path fill="none" d="M949.6929,823.3613 C949.6929,833.3613 967.6929,833.3613 967.6929,833.3613 C967.6929,833.3613 985.6929,833.3613 985.6929,823.3613" style="stroke:#181818;stroke-width:.5"/></g><rect width="1005.686" height="3" x="0" fill="#EEE" style="stroke:#eee;stroke-width:1" y="98.144"/><line style="stroke:#000;stroke-width:1" x1="0" x2="1005.686" y1="98.144" y2="98.144"/><line style="stroke:#000;stroke-width:1" x1="0" x2="1005.686" y1="101.144" y2="101.144"/><rect width="161.285" height="23.311" x="422.2" fill="#EEE" style="stroke:#000;stroke-width:2" y="87.488"/><text x="428.2" y="104.057" fill="#000" font-family="sans-serif" font-size="13" font-weight="bold" lengthAdjust="spacing" textLength="143">节点启动：设备规格上报</text><g id="msg1" class="message" data-entity-1="part4" data-entity-2="part3"><polygon fill="#181818" points="439.571 168.731 429.571 172.731 439.571 176.731 435.571 172.731" style="stroke:#181818;stroke-width:1"/><line style="stroke:#181818;stroke-width:1" x1="433.571" x2="654.76" y1="172.731" y2="172.731"/><text x="473.643" y="137.367" fill="#000" font-family="sans-serif" font-size="13" lengthAdjust="spacing" textLength="137.046">写入 Node Annotation</text><text x="448.922" y="152.678" fill="#000" font-family="sans-serif" font-size="13" lengthAdjust="spacing" textLength="186.488">hami.io/node-nvidia-register</text><text x="451.851" y="167.988" fill="#000" font-family="sans-serif" font-size="13" lengthAdjust="spacing" textLength="180.629">（UUID / 显存 / 算力 / 型号）</text></g><rect width="1005.686" height="3" x="0" fill="#EEE" style="stroke:#eee;stroke-width:1" y="201.386"/><line style="stroke:#000;stroke-width:1" x1="0" x2="1005.686" y1="201.386" y2="201.386"/><line style="stroke:#000;stroke-width:1" x1="0" x2="1005.686" y1="204.386" y2="204.386"/><rect width="99.459" height="23.311" x="453.113" fill="#EEE" style="stroke:#000;stroke-width:2" y="190.731"/><text x="459.113" y="207.299" fill="#000" font-family="sans-serif" font-size="13" font-weight="bold" lengthAdjust="spacing" textLength="81.174">用户提交 Pod</text><g id="msg2" class="message" data-entity-1="part1" data-entity-2="part2"><polygon fill="#181818" points="220.628 256.662 230.628 260.662 220.628 264.662 224.628 260.662" style="stroke:#181818;stroke-width:1"/><line style="stroke:#181818;stroke-width:1" x1="26" x2="226.628" y1="260.662" y2="260.662"/><text x="102.581" y="240.609" fill="#000" font-family="sans-serif" font-size="13" lengthAdjust="spacing" textLength="53.466">提交 Pod</text><text x="38" y="255.92" fill="#000" font-family="sans-serif" font-size="13" lengthAdjust="spacing" textLength="182.628">(nvidia.com/gpu + gpumem)</text></g><g id="msg3" class="message" data-entity-1="part2" data-entity-2="part2"><line style="stroke:#181818;stroke-width:1" x1="232.628" x2="274.628" y1="305.283" y2="305.283"/><line style="stroke:#181818;stroke-width:1" x1="274.628" x2="274.628" y1="305.283" y2="318.283"/><line style="stroke:#181818;stroke-width:1" x1="233.628" x2="274.628" y1="318.283" y2="318.283"/><polygon fill="#181818" points="243.628 314.283 233.628 318.283 243.628 322.283 239.628 318.283" style="stroke:#181818;stroke-width:1"/><text x="266.879" y="285.231" fill="#000" font-family="sans-serif" font-size="13" lengthAdjust="spacing" textLength="127.442">改写 schedulerName</text><text x="239.628" y="300.541" fill="#000" font-family="sans-serif" font-size="13" lengthAdjust="spacing" textLength="181.943">（强制使用 hami-scheduler）</text></g><g id="msg4" class="message" data-entity-1="part2" data-entity-2="part3"><polygon fill="#181818" points="416.571 343.594 426.571 347.594 416.571 351.594 420.571 347.594" style="stroke:#181818;stroke-width:1"/><line style="stroke:#181818;stroke-width:1" x1="232.628" x2="422.571" y1="347.594" y2="347.594"/><text x="250.572" y="342.852" fill="#000" font-family="sans-serif" font-size="13" lengthAdjust="spacing" textLength="160.056">交由 hami-scheduler 调度</text></g><rect width="1005.686" height="3" x="0" fill="#EEE" style="stroke:#eee;stroke-width:1" y="376.249"/><line style="stroke:#000;stroke-width:1" x1="0" x2="1005.686" y1="376.249" y2="376.249"/><line style="stroke:#000;stroke-width:1" x1="0" x2="1005.686" y1="379.249" y2="379.249"/><rect width="70.285" height="23.311" x="467.7" fill="#EEE" style="stroke:#000;stroke-width:2" y="365.594"/><text x="473.7" y="382.162" fill="#000" font-family="sans-serif" font-size="13" font-weight="bold" lengthAdjust="spacing" textLength="52">调度决策</text><g id="msg5" class="message" data-entity-1="part3" data-entity-2="part3"><line style="stroke:#181818;stroke-width:1" x1="428.571" x2="470.571" y1="435.525" y2="435.525"/><line style="stroke:#181818;stroke-width:1" x1="470.571" x2="470.571" y1="435.525" y2="448.525"/><line style="stroke:#181818;stroke-width:1" x1="429.571" x2="470.571" y1="448.525" y2="448.525"/><polygon fill="#181818" points="439.571 444.525 429.571 448.525 439.571 452.525 435.571 448.525" style="stroke:#181818;stroke-width:1"/><text x="445.204" y="415.473" fill="#000" font-family="sans-serif" font-size="13" lengthAdjust="spacing" textLength="137.046">读取 Node Annotation</text><text x="435.571" y="430.783" fill="#000" font-family="sans-serif" font-size="13" lengthAdjust="spacing" textLength="156.311">选定目标节点与 GPU UUID</text></g><g id="msg6" class="message" data-entity-1="part3" data-entity-2="part4"><polygon fill="#181818" points="643.76 504.457 653.76 508.457 643.76 512.457 647.76 508.457" style="stroke:#181818;stroke-width:1"/><line style="stroke:#181818;stroke-width:1" x1="428.571" x2="649.76" y1="508.457" y2="508.457"/><text x="478.473" y="473.094" fill="#000" font-family="sans-serif" font-size="13" lengthAdjust="spacing" textLength="127.385">写入 Pod Annotation</text><text x="440.571" y="488.404" fill="#000" font-family="sans-serif" font-size="13" lengthAdjust="spacing" textLength="203.189">hami.io/vgpu-devices-allocated</text><text x="442.856" y="503.715" fill="#000" font-family="sans-serif" font-size="13" lengthAdjust="spacing" textLength="198.618">（UUID + 显存配额 + 算力配额）</text></g><rect width="1005.686" height="3" x="0" fill="#EEE" style="stroke:#eee;stroke-width:1" y="537.112"/><line style="stroke:#000;stroke-width:1" x1="0" x2="1005.686" y1="537.112" y2="537.112"/><line style="stroke:#000;stroke-width:1" x1="0" x2="1005.686" y1="540.112" y2="540.112"/><rect width="135.285" height="23.311" x="435.2" fill="#EEE" style="stroke:#000;stroke-width:2" y="526.457"/><text x="441.2" y="543.025" fill="#000" font-family="sans-serif" font-size="13" font-weight="bold" lengthAdjust="spacing" textLength="117">设备分配与容器启动</text><g id="msg7" class="message" data-entity-1="part4" data-entity-2="part4"><line style="stroke:#181818;stroke-width:1" x1="655.76" x2="697.76" y1="596.389" y2="596.389"/><line style="stroke:#181818;stroke-width:1" x1="697.76" x2="697.76" y1="596.389" y2="609.389"/><line style="stroke:#181818;stroke-width:1" x1="656.76" x2="697.76" y1="609.389" y2="609.389"/><polygon fill="#181818" points="666.76 605.389 656.76 609.389 666.76 613.389 662.76 609.389" style="stroke:#181818;stroke-width:1"/><text x="666.279" y="576.336" fill="#000" font-family="sans-serif" font-size="13" lengthAdjust="spacing" textLength="127.385">读取 Pod Annotation</text><text x="662.76" y="591.646" fill="#000" font-family="sans-serif" font-size="13" lengthAdjust="spacing" textLength="134.424">获取 GPU UUID 与配额</text></g><g id="msg8" class="message" data-entity-1="part4" data-entity-2="part6"><polygon fill="#181818" points="955.693 634.699 965.693 638.699 955.693 642.699 959.693 638.699" style="stroke:#181818;stroke-width:1"/><line style="stroke:#181818;stroke-width:1" x1="655.76" x2="961.693" y1="638.699" y2="638.699"/><text x="756.806" y="633.957" fill="#000" font-family="sans-serif" font-size="13" lengthAdjust="spacing" textLength="109.84">挂载 /dev/nvidia*</text></g><path fill="#FEFFDD" d="M485,651.6992 L485,737.6992 L825,737.6992 L825,661.6992 L815,651.6992 L485,651.6992" style="stroke:#181818;stroke-width:.5"/><path fill="#FEFFDD" d="M815,651.6992 L815,661.6992 L825,661.6992 L815,651.6992" style="stroke:#181818;stroke-width:.5"/><text x="491" y="669.268" fill="#000" font-family="sans-serif" font-size="13" lengthAdjust="spacing" textLength="132.526">Allocate 响应中注入：</text><text x="491" y="684.578" fill="#000" font-family="sans-serif" font-size="13" lengthAdjust="spacing" textLength="165.972">• hostPath 挂载 libvgpu.so</text><text x="491" y="699.889" fill="#000" font-family="sans-serif" font-size="13" lengthAdjust="spacing" textLength="319.344">• hostPath 挂载 ld.so.preload → /etc/ld.so.preload</text><text x="491" y="715.199" fill="#000" font-family="sans-serif" font-size="13" lengthAdjust="spacing" textLength="264.767">• CUDA_DEVICE_MEMORY_LIMIT_&lt;index&gt;</text><text x="491" y="730.51" fill="#000" font-family="sans-serif" font-size="13" lengthAdjust="spacing" textLength="164.715">• CUDA_DEVICE_SM_LIMIT</text><g id="msg9" class="message" data-entity-1="part5" data-entity-2="part6"><polygon fill="#181818" points="955.693 775.873 965.693 779.873 955.693 783.873 959.693 779.873" style="stroke:#181818;stroke-width:1"/><line style="stroke:#181818;stroke-width:1" x1="804.184" x2="961.693" y1="779.873" y2="779.873"/><text x="840.521" y="759.82" fill="#000" font-family="sans-serif" font-size="13" lengthAdjust="spacing" textLength="90.835">CUDA API 调用</text><text x="816.184" y="775.131" fill="#000" font-family="sans-serif" font-size="13" lengthAdjust="spacing" textLength="139.509">（超出配额返回 OOM）</text></g><?plantuml-src TLJBJjj05DtxAqQmQOkSx563bERHHgeXAashgbJHO8yIYyHERGTOehG98IqFjH45eY94UQGBGX4IZn3WNr36TbRyGk_OII0yTcFVS-wSUywrzGbPoM0Dfv5EFcU98XA1w3fE47zAJYX898f1D4xleZIYPrH5xw1Ua9GwvTSqTGePMfPm7A0CMPGpM35GdrMkciNZFeHrbDMXJKzHo1hOa9N4UpAULDM9CULZgrAmBhRCXLrQFA87kKyESSeje_v081GAXtjxZ8f98cLJHED3qmPH9A8zraPdo8UR1CcaB18KJMKJiW9ykvIpSgVDip_MKg7BbpAC70u70htaLtv1vWEgHe18QwTqjKeB-TPQsTevwt95AAF-SDXXIzZ0urWduCxSNxW1lOp675GYa-Kudm-vrzEbVLggNZVMxDe5tPgrTx-Q6utcISaiRIEVZ-D03p_KdceGqS8gpM-ZOLKYoAyeAdDMXLcIE2rxPDMhG85N9cL9nhn64h9kCAUk6yLOB194NcIkND2z5JXOjL-qL843NVz65u-l6tEE9ZT8St6fMTz2KLLo9B18cOXEGeFe1Z2cF76lyuXgsWkZeG4sO9gadt8TV2-rV0f3k0EnG8TncZWAQQCEEJRFBq43OlFmNGnJTwjPnmoGO9KFxc2H_UyBhU-u3Zj7MZYqzfQTILpchHRs_XbTNBxlPsjcZjRMh4hDt9Xjhyd90aiGCIDl-a0wtL2ONGzbCWb-y9ApUpgFKobLn0QHRb8PQAVIoi-tDd_3evkD-zW9njqEMYp0Qv3Ita1dTswjYIEdFTDTEVR2CNlTcG515_UADfTb1_5ypzddvyWBUhrkiCyuw46GEWdUEltzxH4G_JbFw-NcoPvvM0K3O8V7bAkPJPHKTIEAZMIdMKeUPnvuTFMHkWGbJqQ3NmoMq5NX1_8IG_Jsl7QPWLZG7m-6taK2eRWG4aRUV8Y_ZWYHj_7dClmJfeVkeqO55y4vtsPtJ0P1_cY4hGZicnE6VPIditNN4_koJ2lhQ6H4O07y1m00?></g></svg>