<?plantuml 1.2026.2?><svg xmlns="http://www.w3.org/2000/svg" xmlns:xlink="http://www.w3.org/1999/xlink" width="1124" height="876" contentStyleType="text/css" data-diagram-type="SEQUENCE" style="width:1124px;height:876px;background:#fff" preserveAspectRatio="none" version="1.1" viewBox="0 0 1124 876" zoomAndPan="magnify"><g><g id="part1-lifeline" class="participant-lifeline" data-entity-uid="part1" data-qualified-name="user"><g><title>User</title><rect width="8" height="730.385" x="23.183" y="67.488" fill="#000" fill-opacity="0"/><line style="stroke:#181818;stroke-width:.5;stroke-dasharray:5,5" x1="27" x2="27" y1="67.488" y2="797.873"/></g></g><g id="part2-lifeline" class="participant-lifeline" data-entity-uid="part2" data-qualified-name="webhook"><g><title>MutatingWebhook</title><rect width="8" height="730.385" x="229.811" y="67.488" fill="#000" fill-opacity="0"/><line style="stroke:#181818;stroke-width:.5;stroke-dasharray:5,5" x1="233.355" x2="233.355" y1="67.488" y2="797.873"/></g></g><g id="part3-lifeline" class="participant-lifeline" data-entity-uid="part3" data-qualified-name="sched"><g><title>Scheduler-Extender</title><rect width="8" height="730.385" x="429.356" y="67.488" fill="#000" fill-opacity="0"/><line style="stroke:#181818;stroke-width:.5;stroke-dasharray:5,5" x1="432.899" x2="432.899" y1="67.488" y2="797.873"/></g></g><g id="part4-lifeline" class="participant-lifeline" data-entity-uid="part4" data-qualified-name="dp"><g><title>Device Plugin</title><rect width="8" height="730.385" x="703.231" y="67.488" fill="#000" fill-opacity="0"/><line style="stroke:#181818;stroke-width:.5;stroke-dasharray:5,5" x1="706.395" x2="706.395" y1="67.488" y2="797.873"/></g></g><g id="part5-lifeline" class="participant-lifeline" data-entity-uid="part5" data-qualified-name="core"><g><title>HAMi-Core</title><rect width="8" height="730.385" x="881.231" y="67.488" fill="#000" fill-opacity="0"/><line style="stroke:#181818;stroke-width:.5;stroke-dasharray:5,5" x1="885.066" x2="885.066" y1="67.488" y2="797.873"/></g></g><g id="part6-lifeline" class="participant-lifeline" data-entity-uid="part6" data-qualified-name="gpu"><g><title>Physical GPU</title><rect width="8" height="730.385" x="1062.202" y="67.488" fill="#000" fill-opacity="0"/><line style="stroke:#181818;stroke-width:.5;stroke-dasharray:5,5" x1="1065.273" x2="1065.273" y1="67.488" y2="797.873"/></g></g><g id="part1-head" class="participant participant-head" data-entity-uid="part1" data-qualified-name="user"><rect style="stroke:#181818;stroke-width:.5" width="44.365" height="30.488" x="5" y="36" fill="#E2E2F0" rx="2.5" ry="2.5"/><text x="12" y="56.535" fill="#000" font-family="sans-serif" font-size="14" lengthAdjust="spacing" textLength="30.365">User</text></g><g id="part1-tail" class="participant participant-tail" data-entity-uid="part1" data-qualified-name="user"><rect style="stroke:#181818;stroke-width:.5" width="44.365" height="30.488" x="5" y="796.873" fill="#E2E2F0" rx="2.5" ry="2.5"/><text x="12" y="817.408" fill="#000" font-family="sans-serif" font-size="14" lengthAdjust="spacing" textLength="30.365">User</text></g><g id="part2-head" class="participant participant-head" data-entity-uid="part2" data-qualified-name="webhook"><rect style="stroke:#181818;stroke-width:.5" width="166.913" height="46.977" x="150.355" y="19.512" fill="#CEF" rx="2.5" ry="2.5"/><text x="172.274" y="40.047" fill="#000" font-family="sans-serif" font-size="14" lengthAdjust="spacing" textLength="123.074">MutatingWebhook</text><text x="157.355" y="56.535" fill="#000" font-family="sans-serif" font-size="14" lengthAdjust="spacing" textLength="152.913">[Cluster Control Layer]</text></g><g id="part2-tail" class="participant participant-tail" data-entity-uid="part2" data-qualified-name="webhook"><rect style="stroke:#181818;stroke-width:.5" width="166.913" height="46.977" x="150.355" y="796.873" fill="#CEF" rx="2.5" ry="2.5"/><text x="172.274" y="817.408" fill="#000" font-family="sans-serif" font-size="14" lengthAdjust="spacing" textLength="123.074">MutatingWebhook</text><text x="157.355" y="833.896" fill="#000" font-family="sans-serif" font-size="14" lengthAdjust="spacing" textLength="152.913">[Cluster Control Layer]</text></g><g id="part3-head" class="participant participant-head" data-entity-uid="part3" data-qualified-name="sched"><rect style="stroke:#181818;stroke-width:.5" width="166.913" height="46.977" x="349.899" y="19.512" fill="#CEF" rx="2.5" ry="2.5"/><text x="366.049" y="40.047" fill="#000" font-family="sans-serif" font-size="14" lengthAdjust="spacing" textLength="134.613">Scheduler-Extender</text><text x="356.899" y="56.535" fill="#000" font-family="sans-serif" font-size="14" lengthAdjust="spacing" textLength="152.913">[Cluster Control Layer]</text></g><g id="part3-tail" class="participant participant-tail" data-entity-uid="part3" data-qualified-name="sched"><rect style="stroke:#181818;stroke-width:.5" width="166.913" height="46.977" x="349.899" y="796.873" fill="#CEF" rx="2.5" ry="2.5"/><text x="366.049" y="817.408" fill="#000" font-family="sans-serif" font-size="14" lengthAdjust="spacing" textLength="134.613">Scheduler-Extender</text><text x="356.899" y="833.896" fill="#000" font-family="sans-serif" font-size="14" lengthAdjust="spacing" textLength="152.913">[Cluster Control Layer]</text></g><g id="part4-head" class="participant participant-head" data-entity-uid="part4" data-qualified-name="dp"><rect style="stroke:#181818;stroke-width:.5" width="143.671" height="46.977" x="635.395" y="19.512" fill="#CFC" rx="2.5" ry="2.5"/><text x="661.772" y="40.047" fill="#000" font-family="sans-serif" font-size="14" lengthAdjust="spacing" textLength="90.918">Device Plugin</text><text x="642.395" y="56.535" fill="#000" font-family="sans-serif" font-size="14" lengthAdjust="spacing" textLength="129.671">[Node Agent Layer]</text></g><g id="part4-tail" class="participant participant-tail" data-entity-uid="part4" data-qualified-name="dp"><rect style="stroke:#181818;stroke-width:.5" width="143.671" height="46.977" x="635.395" y="796.873" fill="#CFC" rx="2.5" ry="2.5"/><text x="661.772" y="817.408" fill="#000" font-family="sans-serif" font-size="14" lengthAdjust="spacing" textLength="90.918">Device Plugin</text><text x="642.395" y="833.896" fill="#000" font-family="sans-serif" font-size="14" lengthAdjust="spacing" textLength="129.671">[Node Agent Layer]</text></g><g id="part5-head" class="participant participant-head" data-entity-uid="part5" data-qualified-name="core"><rect style="stroke:#181818;stroke-width:.5" width="192.329" height="46.977" x="789.066" y="19.512" fill="#FFC" rx="2.5" ry="2.5"/><text x="847.247" y="40.047" fill="#000" font-family="sans-serif" font-size="14" lengthAdjust="spacing" textLength="75.968">HAMi-Core</text><text x="796.066" y="56.535" fill="#000" font-family="sans-serif" font-size="14" lengthAdjust="spacing" textLength="178.329">[Container Isolation Layer]</text></g><g id="part5-tail" class="participant participant-tail" data-entity-uid="part5" data-qualified-name="core"><rect style="stroke:#181818;stroke-width:.5" width="192.329" height="46.977" x="789.066" y="796.873" fill="#FFC" rx="2.5" ry="2.5"/><text x="847.247" y="817.408" fill="#000" font-family="sans-serif" font-size="14" lengthAdjust="spacing" textLength="75.968">HAMi-Core</text><text x="796.066" y="833.896" fill="#000" font-family="sans-serif" font-size="14" lengthAdjust="spacing" textLength="178.329">[Container Isolation Layer]</text></g><g id="part6-head" class="participant participant-head" data-entity-uid="part6" data-qualified-name="gpu"><text x="1020.273" y="64.535" fill="#000" font-family="sans-serif" font-size="14" lengthAdjust="spacing" textLength="85.859">Physical GPU</text><path fill="#E2E2F0" d="M1048.2021,15 C1048.2021,5 1066.2021,5 1066.2021,5 C1066.2021,5 1084.2021,5 1084.2021,15 L1084.2021,41 C1084.2021,51 1066.2021,51 1066.2021,51 C1066.2021,51 1048.2021,51 1048.2021,41 L1048.2021,15" style="stroke:#181818;stroke-width:.5"/><path fill="none" d="M1048.2021,15 C1048.2021,25 1066.2021,25 1066.2021,25 C1066.2021,25 1084.2021,25 1084.2021,15" style="stroke:#181818;stroke-width:.5"/></g><g id="part6-tail" class="participant participant-tail" data-entity-uid="part6" data-qualified-name="gpu"><text x="1020.273" y="810.408" fill="#000" font-family="sans-serif" font-size="14" lengthAdjust="spacing" textLength="85.859">Physical GPU</text><path fill="#E2E2F0" d="M1048.2021,823.3613 C1048.2021,813.3613 1066.2021,813.3613 1066.2021,813.3613 C1066.2021,813.3613 1084.2021,813.3613 1084.2021,823.3613 L1084.2021,849.3613 C1084.2021,859.3613 1066.2021,859.3613 1066.2021,859.3613 C1066.2021,859.3613 1048.2021,859.3613 1048.2021,849.3613 L1048.2021,823.3613" style="stroke:#181818;stroke-width:.5"/><path fill="none" d="M1048.2021,823.3613 C1048.2021,833.3613 1066.2021,833.3613 1066.2021,833.3613 C1066.2021,833.3613 1084.2021,833.3613 1084.2021,823.3613" style="stroke:#181818;stroke-width:.5"/></g><rect style="stroke:#eee;stroke-width:1" width="1117.132" height="3" x="0" y="98.144" fill="#EEE"/><line style="stroke:#000;stroke-width:1" x1="0" x2="1117.132" y1="98.144" y2="98.144"/><line style="stroke:#000;stroke-width:1" x1="0" x2="1117.132" y1="101.144" y2="101.144"/><rect style="stroke:#000;stroke-width:2" width="262.828" height="23.311" x="427.152" y="87.488" fill="#EEE"/><text x="433.152" y="104.057" fill="#000" font-family="sans-serif" font-size="13" font-weight="bold" lengthAdjust="spacing" textLength="244.543">Node Startup: Device Spec Reporting</text><g id="msg1" class="message" data-entity-1="part4" data-entity-2="part3"><polygon fill="#181818" points="444.356 168.731 434.356 172.731 444.356 176.731 440.356 172.731" style="stroke:#181818;stroke-width:1"/><line style="stroke:#181818;stroke-width:1" x1="438.356" x2="706.231" y1="172.731" y2="172.731"/><text x="498.619" y="137.367" fill="#000" font-family="sans-serif" font-size="13" lengthAdjust="spacing" textLength="143.349">Write Node Annotation</text><text x="477.049" y="152.678" fill="#000" font-family="sans-serif" font-size="13" lengthAdjust="spacing" textLength="186.488">hami.io/node-nvidia-register</text><text x="461.39" y="167.988" fill="#000" font-family="sans-serif" font-size="13" lengthAdjust="spacing" textLength="217.807">(UUID / VRAM / Compute / Model)</text></g><rect style="stroke:#eee;stroke-width:1" width="1117.132" height="3" x="0" y="201.386" fill="#EEE"/><line style="stroke:#000;stroke-width:1" x1="0" x2="1117.132" y1="201.386" y2="201.386"/><line style="stroke:#000;stroke-width:1" x1="0" x2="1117.132" y1="204.386" y2="204.386"/><rect style="stroke:#000;stroke-width:2" width="136.224" height="23.311" x="490.454" y="190.731" fill="#EEE"/><text x="496.454" y="207.299" fill="#000" font-family="sans-serif" font-size="13" font-weight="bold" lengthAdjust="spacing" textLength="117.939">User Submits Pod</text><g id="msg2" class="message" data-entity-1="part1" data-entity-2="part2"><polygon fill="#181818" points="221.811 256.662 231.811 260.662 221.811 264.662 225.811 260.662" style="stroke:#181818;stroke-width:1"/><line style="stroke:#181818;stroke-width:1" x1="27.183" x2="227.811" y1="260.662" y2="260.662"/><text x="94.76" y="240.609" fill="#000" font-family="sans-serif" font-size="13" lengthAdjust="spacing" textLength="71.475">Submit Pod</text><text x="39.183" y="255.92" fill="#000" font-family="sans-serif" font-size="13" lengthAdjust="spacing" textLength="182.628">(nvidia.com/gpu + gpumem)</text></g><g id="msg3" class="message" data-entity-1="part2" data-entity-2="part2"><line style="stroke:#181818;stroke-width:1" x1="233.811" x2="275.811" y1="305.283" y2="305.283"/><line style="stroke:#181818;stroke-width:1" x1="275.811" x2="275.811" y1="305.283" y2="318.283"/><line style="stroke:#181818;stroke-width:1" x1="234.811" x2="275.811" y1="318.283" y2="318.283"/><polygon fill="#181818" points="244.811 314.283 234.811 318.283 244.811 322.283 240.811 318.283" style="stroke:#181818;stroke-width:1"/><text x="240.811" y="285.231" fill="#000" font-family="sans-serif" font-size="13" lengthAdjust="spacing" textLength="148.103">Rewrite schedulerName</text><text x="242.671" y="300.541" fill="#000" font-family="sans-serif" font-size="13" lengthAdjust="spacing" textLength="144.384">(force hami-scheduler)</text></g><g id="msg4" class="message" data-entity-1="part2" data-entity-2="part3"><polygon fill="#181818" points="421.356 343.594 431.356 347.594 421.356 351.594 425.356 347.594" style="stroke:#181818;stroke-width:1"/><line style="stroke:#181818;stroke-width:1" x1="233.811" x2="427.356" y1="347.594" y2="347.594"/><text x="245.811" y="342.852" fill="#000" font-family="sans-serif" font-size="13" lengthAdjust="spacing" textLength="175.544">Hand off to hami-scheduler</text></g><rect style="stroke:#eee;stroke-width:1" width="1117.132" height="3" x="0" y="376.249" fill="#EEE"/><line style="stroke:#000;stroke-width:1" x1="0" x2="1117.132" y1="376.249" y2="376.249"/><line style="stroke:#000;stroke-width:1" x1="0" x2="1117.132" y1="379.249" y2="379.249"/><rect style="stroke:#000;stroke-width:2" width="153.28" height="23.311" x="481.926" y="365.594" fill="#EEE"/><text x="487.926" y="382.162" fill="#000" font-family="sans-serif" font-size="13" font-weight="bold" lengthAdjust="spacing" textLength="134.996">Scheduling Decision</text><g id="msg5" class="message" data-entity-1="part3" data-entity-2="part3"><line style="stroke:#181818;stroke-width:1" x1="433.356" x2="475.356" y1="435.525" y2="435.525"/><line style="stroke:#181818;stroke-width:1" x1="475.356" x2="475.356" y1="435.525" y2="448.525"/><line style="stroke:#181818;stroke-width:1" x1="434.356" x2="475.356" y1="448.525" y2="448.525"/><polygon fill="#181818" points="444.356 444.525 434.356 448.525 444.356 452.525 440.356 448.525" style="stroke:#181818;stroke-width:1"/><text x="472.868" y="415.473" fill="#000" font-family="sans-serif" font-size="13" lengthAdjust="spacing" textLength="141.87">Read Node Annotation</text><text x="440.356" y="430.783" fill="#000" font-family="sans-serif" font-size="13" lengthAdjust="spacing" textLength="206.895">Select target node and GPU UUID</text></g><g id="msg6" class="message" data-entity-1="part3" data-entity-2="part4"><polygon fill="#181818" points="695.231 504.457 705.231 508.457 695.231 512.457 699.231 508.457" style="stroke:#181818;stroke-width:1"/><line style="stroke:#181818;stroke-width:1" x1="433.356" x2="701.231" y1="508.457" y2="508.457"/><text x="503.449" y="473.094" fill="#000" font-family="sans-serif" font-size="13" lengthAdjust="spacing" textLength="133.688">Write Pod Annotation</text><text x="468.699" y="488.404" fill="#000" font-family="sans-serif" font-size="13" lengthAdjust="spacing" textLength="203.189">hami.io/vgpu-devices-allocated</text><text x="445.356" y="503.715" fill="#000" font-family="sans-serif" font-size="13" lengthAdjust="spacing" textLength="249.875">(UUID + VRAM quota + compute quota)</text></g><rect style="stroke:#eee;stroke-width:1" width="1117.132" height="3" x="0" y="537.112" fill="#EEE"/><line style="stroke:#000;stroke-width:1" x1="0" x2="1117.132" y1="537.112" y2="537.112"/><line style="stroke:#000;stroke-width:1" x1="0" x2="1117.132" y1="540.112" y2="540.112"/><rect style="stroke:#000;stroke-width:2" width="268.668" height="23.311" x="424.232" y="526.457" fill="#EEE"/><text x="430.232" y="543.025" fill="#000" font-family="sans-serif" font-size="13" font-weight="bold" lengthAdjust="spacing" textLength="250.383">Device Allocation and Container Start</text><g id="msg7" class="message" data-entity-1="part4" data-entity-2="part4"><line style="stroke:#181818;stroke-width:1" x1="707.231" x2="749.231" y1="596.389" y2="596.389"/><line style="stroke:#181818;stroke-width:1" x1="749.231" x2="749.231" y1="596.389" y2="609.389"/><line style="stroke:#181818;stroke-width:1" x1="708.231" x2="749.231" y1="609.389" y2="609.389"/><polygon fill="#181818" points="718.231 605.389 708.231 609.389 718.231 613.389 714.231 609.389" style="stroke:#181818;stroke-width:1"/><text x="728.812" y="576.336" fill="#000" font-family="sans-serif" font-size="13" lengthAdjust="spacing" textLength="132.209">Read Pod Annotation</text><text x="714.231" y="591.646" fill="#000" font-family="sans-serif" font-size="13" lengthAdjust="spacing" textLength="161.37">Get GPU UUID and quotas</text></g><g id="msg8" class="message" data-entity-1="part4" data-entity-2="part6"><polygon fill="#181818" points="1054.202 634.699 1064.202 638.699 1054.202 642.699 1058.202 638.699" style="stroke:#181818;stroke-width:1"/><line style="stroke:#181818;stroke-width:1" x1="707.231" x2="1060.202" y1="638.699" y2="638.699"/><text x="824.706" y="633.957" fill="#000" font-family="sans-serif" font-size="13" lengthAdjust="spacing" textLength="124.02">Mount /dev/nvidia*</text></g><path fill="#FEFFDD" d="M529,651.6992 L529,737.6992 L884,737.6992 L884,661.6992 L874,651.6992 L529,651.6992" style="stroke:#181818;stroke-width:.5"/><path fill="#FEFFDD" d="M874,651.6992 L874,661.6992 L884,661.6992 L874,651.6992" style="stroke:#181818;stroke-width:.5"/><text x="535" y="669.268" fill="#000" font-family="sans-serif" font-size="13" lengthAdjust="spacing" textLength="161.218">Allocate response injects:</text><text x="535" y="684.578" fill="#000" font-family="sans-serif" font-size="13" lengthAdjust="spacing" textLength="181.092">• hostPath mount libvgpu.so</text><text x="535" y="699.889" fill="#000" font-family="sans-serif" font-size="13" lengthAdjust="spacing" textLength="334.464">• hostPath mount ld.so.preload → /etc/ld.so.preload</text><text x="535" y="715.199" fill="#000" font-family="sans-serif" font-size="13" lengthAdjust="spacing" textLength="264.767">• CUDA_DEVICE_MEMORY_LIMIT_&lt;index&gt;</text><text x="535" y="730.51" fill="#000" font-family="sans-serif" font-size="13" lengthAdjust="spacing" textLength="164.715">• CUDA_DEVICE_SM_LIMIT</text><g id="msg9" class="message" data-entity-1="part5" data-entity-2="part6"><polygon fill="#181818" points="1054.202 775.873 1064.202 779.873 1054.202 783.873 1058.202 779.873" style="stroke:#181818;stroke-width:1"/><line style="stroke:#181818;stroke-width:1" x1="885.231" x2="1060.202" y1="779.873" y2="779.873"/><text x="932.622" y="759.82" fill="#000" font-family="sans-serif" font-size="13" lengthAdjust="spacing" textLength="86.189">CUDA API call</text><text x="897.231" y="775.131" fill="#000" font-family="sans-serif" font-size="13" lengthAdjust="spacing" textLength="156.971">(OOM if quota exceeded)</text></g><?plantuml-src VLJ1Rjf04BtxAqR99MbaV4SbaciWGOeJ12LHLIgqs8FPnjvrTjT0RZtr0_e9_RHyIMVNDe4awWdiVVFclNdZrOzSb4on0ZG-LIWIZ55hbc6Oyqn0WiAWylGUfL2NKkWMzGLpkGsLabimgaBF8vJX2I-PC70oqwXEW6cewC_nKLmPPhZ87d2vbl9nBhv7UQMf5qHI62Lpk67Fg7wuycqDWjCe6Wo6msEcQRB6jCfH-OETGP6Y-Z-PjlYFgVguuGd2EAyoBeZbLgO8OKOpE2H8Iriz74RHSVLr67C_aWfjV-hBk2058orpSYh58KL2A3WT3Xr9oWnRCermCbu_Qvwm7Ax6CuVBoihpUZrmGgQ6kbLb5ngPqn8Jc60fbHqaz7gUHzByoyPX5nuKDrZNXa98usJCnPeLlCDb8EZ05nkUSkOhpBWTs5oSpMQZFWHmFmbZ-ebaKLR44a1CyFpSoR6vmhHQ5jne6ClKzROPs-vjMDq6OG54MpVg9B88o1LSM6y55kTUYpygdU3MYTTjkBUieBcUhQGYvzQ1lpywecYzNpEHWbojmCWtSEUWMHexjpucNDjyh8cw_81dWYnzFy8fvfWOe40oD6072ROVnGPsVAyq54YRWvtJHp5iQ11-wYBLFijpcJ23QHl4HHt4KqLrz90qSRZdEenc6yAwqXgnKbuNqAtDmNOuISxMMqLNvAMru4XS5ztKsTIwj0KLxNf0UeCwqKyU4I383RLor8qGt5yLmCLFcfRkpiNBhx-mbjgCcLb3uQXolhGJw6ZvyN5A9vrIqJr3Ybz-_u40JH8SlQuBera_NFG7zwDei8W7yTtas-9c58--BZvpkXHsb-zHqxX6UEvpt5kq40Z78w0lCQSSxkvYuAic0jmbY2ccvzu_?></g></svg>